# xmcd
#
# Track frame offsets: 
#        150
#        17280
#        36195
#        66825
#        83733
#        99405
#        116847
#        132525
#        139380
#        158262
#
# Disc length: 2624 seconds
#
# Revision: 1
# Processed by: cddbd v1.5.1PL0 Copyright (c) Steve Scherf et al.
# Submitted via: ExactAudioCopy v0.95a5
#
DISCID=7c0a3e0a
DTITLE=杭天 - 比比爸爸
DYEAR=2003
DGENRE=Blues
TTITLE0=比比爸爸
TTITLE1=我们都是快乐的牛羊
TTITLE2=傻瓜
TTITLE3=我的心是油炸的蚕豆
TTITLE4=不要想得太多(排练版)
TTITLE5=姑娘，你让我头脑发昏
TTITLE6=还给我吧，我的时间我的钱
TTITLE7=钱
TTITLE8=你得眼
TTITLE9=我希望
EXTD=made by jD4plUs1@RoR
EXTT0=
EXTT1=
EXTT2=
EXTT3=
EXTT4=
EXTT5=
EXTT6=
EXTT7=
EXTT8=
EXTT9=
PLAYORDER=
